<svg xmlns="http://www.w3.org/2000/svg" xmlns:xlink="http://www.w3.org/1999/xlink" width="530pt" height="534pt" viewBox="0.00 0.00 529.60 534.40">
<g id="graph0" class="graph" transform="scale(1 1) rotate(0) translate(4 530.4)">
<title>GroceryAppSchema</title>
<polygon fill="white" stroke="none" points="-4,4 -4,-530.4 525.6,-530.4 525.6,4 -4,4"/>
<!-- SupabaseAuth -->
<g id="node1" class="node">
<title>SupabaseAuth</title>
<path fill="none" stroke="black" d="M151.09,-526.4C151.09,-526.4 31.87,-526.4 31.87,-526.4 25.87,-526.4 19.87,-520.4 19.87,-514.4 19.87,-514.4 19.87,-458.4 19.87,-458.4 19.87,-452.4 25.87,-446.4 31.87,-446.4 31.87,-446.4 151.09,-446.4 151.09,-446.4 157.09,-446.4 163.09,-452.4 163.09,-458.4 163.09,-458.4 163.09,-514.4 163.09,-514.4 163.09,-520.4 157.09,-526.4 151.09,-526.4"/>
<text text-anchor="middle" x="91.48" y="-513.4" font-family="Times,serif" font-size="10.00">Supabase Auth (auth.users)</text>
<text text-anchor="middle" x="91.48" y="-501.4" font-family="Times,serif" font-size="10.00">- id (UUID)</text>
<text text-anchor="middle" x="91.48" y="-489.4" font-family="Times,serif" font-size="10.00">- email</text>
<text text-anchor="middle" x="91.48" y="-477.4" font-family="Times,serif" font-size="10.00">- password_hash</text>
<text text-anchor="middle" x="91.48" y="-465.4" font-family="Times,serif" font-size="10.00">- created_at</text>
<text text-anchor="middle" x="91.48" y="-453.4" font-family="Times,serif" font-size="10.00">[SECURE LOGIN STORAGE]</text>
</g>
<!-- UserProfile -->
<g id="node2" class="node">
<title>UserProfile</title>
<path fill="none" stroke="black" d="M152.21,-393.6C152.21,-393.6 30.75,-393.6 30.75,-393.6 24.75,-393.6 18.75,-387.6 18.75,-381.6 18.75,-381.6 18.75,-289.6 18.75,-289.6 18.75,-283.6 24.75,-277.6 30.75,-277.6 30.75,-277.6 152.21,-277.6 152.21,-277.6 158.21,-277.6 164.21,-283.6 164.21,-289.6 164.21,-289.6 164.21,-381.6 164.21,-381.6 164.21,-387.6 158.21,-393.6 152.21,-393.6"/>
<text text-anchor="middle" x="91.48" y="-380.6" font-family="Times,serif" font-size="10.00">UserProfile</text>
<text text-anchor="middle" x="91.48" y="-368.6" font-family="Times,serif" font-size="10.00">- id (UUID, matches Supabase)</text>
<text text-anchor="middle" x="91.48" y="-356.6" font-family="Times,serif" font-size="10.00">- fullName</text>
<text text-anchor="middle" x="91.48" y="-344.6" font-family="Times,serif" font-size="10.00">- email</text>
<text text-anchor="middle" x="91.48" y="-332.6" font-family="Times,serif" font-size="10.00">- ebtNumber</text>
<text text-anchor="middle" x="91.48" y="-320.6" font-family="Times,serif" font-size="10.00">- snapNumber</text>
<text text-anchor="middle" x="91.48" y="-308.6" font-family="Times,serif" font-size="10.00">- wicNumber</text>
<text text-anchor="middle" x="91.48" y="-296.6" font-family="Times,serif" font-size="10.00">- createdAt</text>
<text text-anchor="middle" x="91.48" y="-284.6" font-family="Times,serif" font-size="10.00">[APP-SPECIFIC USER DATA]</text>
</g>
<!-- SupabaseAuth&#45;&gt;UserProfile -->
<g id="edge1" class="edge">
<title>SupabaseAuth-&gt;UserProfile</title>
<path fill="none" stroke="black" d="M91.48,-445.91C91.48,-433.35 91.48,-419.06 91.48,-405.05"/>
<polygon fill="black" stroke="black" points="94.98,-405.43 91.48,-395.43 87.98,-405.43 94.98,-405.43"/>
<text text-anchor="middle" x="202.73" y="-415.8" font-family="Times,serif" font-size="14.00">1:1  |  Same UUID links login to profile</text>
</g>
<!-- Order -->
<g id="node5" class="node">
<title>Order</title>
<path fill="none" stroke="black" d="M170.96,-212.8C170.96,-212.8 12,-212.8 12,-212.8 6,-212.8 0,-206.8 0,-200.8 0,-200.8 0,-144.8 0,-144.8 0,-138.8 6,-132.8 12,-132.8 12,-132.8 170.96,-132.8 170.96,-132.8 176.96,-132.8 182.96,-138.8 182.96,-144.8 182.96,-144.8 182.96,-200.8 182.96,-200.8 182.96,-206.8 176.96,-212.8 170.96,-212.8"/>
<text text-anchor="middle" x="91.48" y="-199.8" font-family="Times,serif" font-size="10.00">Order</text>
<text text-anchor="middle" x="91.48" y="-187.8" font-family="Times,serif" font-size="10.00">- id (Int)</text>
<text text-anchor="middle" x="91.48" y="-175.8" font-family="Times,serif" font-size="10.00">- userId (UUID)</text>
<text text-anchor="middle" x="91.48" y="-163.8" font-family="Times,serif" font-size="10.00">- createdAt</text>
<text text-anchor="middle" x="91.48" y="-151.8" font-family="Times,serif" font-size="10.00">- confirmed</text>
<text text-anchor="middle" x="91.48" y="-139.8" font-family="Times,serif" font-size="10.00">[CART OR COMPLETED PURCHASE]</text>
</g>
<!-- UserProfile&#45;&gt;Order -->
<g id="edge2" class="edge">
<title>UserProfile-&gt;Order</title>
<path fill="none" stroke="black" d="M91.48,-277.46C91.48,-260.15 91.48,-241.26 91.48,-224.41"/>
<polygon fill="black" stroke="black" points="94.98,-224.63 91.48,-214.63 87.98,-224.63 94.98,-224.63"/>
<text text-anchor="middle" x="191.82" y="-247" font-family="Times,serif" font-size="14.00">1:N  |  A user can have many orders</text>
</g>
<!-- Store -->
<g id="node3" class="node">
<title>Store</title>
<path fill="none" stroke="black" d="M374.89,-381.6C374.89,-381.6 272.06,-381.6 272.06,-381.6 266.06,-381.6 260.06,-375.6 260.06,-369.6 260.06,-369.6 260.06,-301.6 260.06,-301.6 260.06,-295.6 266.06,-289.6 272.06,-289.6 272.06,-289.6 374.89,-289.6 374.89,-289.6 380.89,-289.6 386.89,-295.6 386.89,-301.6 386.89,-301.6 386.89,-369.6 386.89,-369.6 386.89,-375.6 380.89,-381.6 374.89,-381.6"/>
<text text-anchor="middle" x="323.48" y="-368.6" font-family="Times,serif" font-size="10.00">Store</text>
<text text-anchor="middle" x="323.48" y="-356.6" font-family="Times,serif" font-size="10.00">- id (Int)</text>
<text text-anchor="middle" x="323.48" y="-344.6" font-family="Times,serif" font-size="10.00">- name</text>
<text text-anchor="middle" x="323.48" y="-332.6" font-family="Times,serif" font-size="10.00">- address</text>
<text text-anchor="middle" x="323.48" y="-320.6" font-family="Times,serif" font-size="10.00">- zipcode</text>
<text text-anchor="middle" x="323.48" y="-308.6" font-family="Times,serif" font-size="10.00">- createdAt</text>
<text text-anchor="middle" x="323.48" y="-296.6" font-family="Times,serif" font-size="10.00">[STORE INFORMATION]</text>
</g>
<!-- Item -->
<g id="node4" class="node">
<title>Item</title>
<path fill="none" stroke="black" d="M369.62,-224.8C369.62,-224.8 277.34,-224.8 277.34,-224.8 271.34,-224.8 265.34,-218.8 265.34,-212.8 265.34,-212.8 265.34,-132.8 265.34,-132.8 265.34,-126.8 271.34,-120.8 277.34,-120.8 277.34,-120.8 369.62,-120.8 369.62,-120.8 375.62,-120.8 381.62,-126.8 381.62,-132.8 381.62,-132.8 381.62,-212.8 381.62,-212.8 381.62,-218.8 375.62,-224.8 369.62,-224.8"/>
<text text-anchor="middle" x="323.48" y="-211.8" font-family="Times,serif" font-size="10.00">Item</text>
<text text-anchor="middle" x="323.48" y="-199.8" font-family="Times,serif" font-size="10.00">- id (Int)</text>
<text text-anchor="middle" x="323.48" y="-187.8" font-family="Times,serif" font-size="10.00">- name</text>
<text text-anchor="middle" x="323.48" y="-175.8" font-family="Times,serif" font-size="10.00">- description</text>
<text text-anchor="middle" x="323.48" y="-163.8" font-family="Times,serif" font-size="10.00">- expirationDate</text>
<text text-anchor="middle" x="323.48" y="-151.8" font-family="Times,serif" font-size="10.00">- available</text>
<text text-anchor="middle" x="323.48" y="-139.8" font-family="Times,serif" font-size="10.00">- storeId (FK)</text>
<text text-anchor="middle" x="323.48" y="-127.8" font-family="Times,serif" font-size="10.00">[PRODUCT LISTINGS]</text>
</g>
<!-- Store&#45;&gt;Item -->
<g id="edge5" class="edge">
<title>Store-&gt;Item</title>
<path fill="none" stroke="black" d="M323.48,-289.38C323.48,-273 323.48,-254.19 323.48,-236.56"/>
<polygon fill="black" stroke="black" points="326.98,-236.71 323.48,-226.71 319.98,-236.71 326.98,-236.71"/>
<text text-anchor="middle" x="410.04" y="-247" font-family="Times,serif" font-size="14.00">1:N  |  A store lists many items</text>
</g>
<!-- OrderItem -->
<g id="node6" class="node">
<title>OrderItem</title>
<path fill="none" stroke="black" d="M266.67,-68C266.67,-68 148.29,-68 148.29,-68 142.29,-68 136.29,-62 136.29,-56 136.29,-56 136.29,-12 136.29,-12 136.29,-6 142.29,0 148.29,0 148.29,0 266.67,0 266.67,0 272.67,0 278.67,-6 278.67,-12 278.67,-12 278.67,-56 278.67,-56 278.67,-62 272.67,-68 266.67,-68"/>
<text text-anchor="middle" x="207.48" y="-55" font-family="Times,serif" font-size="10.00">OrderItem</text>
<text text-anchor="middle" x="207.48" y="-43" font-family="Times,serif" font-size="10.00">- id (Int)</text>
<text text-anchor="middle" x="207.48" y="-31" font-family="Times,serif" font-size="10.00">- orderId (FK)</text>
<text text-anchor="middle" x="207.48" y="-19" font-family="Times,serif" font-size="10.00">- itemId (FK)</text>
<text text-anchor="middle" x="207.48" y="-7" font-family="Times,serif" font-size="10.00">[LINKS ITEMS TO ORDERS]</text>
</g>
<!-- Item&#45;&gt;OrderItem -->
<g id="edge4" class="edge">
<title>Item-&gt;OrderItem</title>
<path fill="none" stroke="black" d="M317.55,-120.55C314.28,-108.32 309.23,-95.94 301.48,-86 297.46,-80.84 292.76,-76.14 287.65,-71.86"/>
<polygon fill="black" stroke="black" points="289.99,-69.24 279.92,-65.97 285.76,-74.81 289.99,-69.24"/>
<text text-anchor="middle" x="416.4" y="-90.2" font-family="Times,serif" font-size="14.00">1:N  |  An item can be in many orders</text>
</g>
<!-- Order&#45;&gt;OrderItem -->
<g id="edge3" class="edge">
<title>Order-&gt;OrderItem</title>
<path fill="none" stroke="black" d="M83.09,-132.41C81.89,-116.82 83.4,-99.44 92.24,-86 100.43,-73.54 112.42,-64.1 125.61,-56.96"/>
<polygon fill="black" stroke="black" points="127.08,-60.14 134.53,-52.6 124.01,-53.85 127.08,-60.14"/>
<text text-anchor="middle" x="196.86" y="-90.2" font-family="Times,serif" font-size="14.00">1:N  |  An order can have many items</text>
</g>
</g>
</svg>